<?xml version="1.0" encoding="utf-8"?>
<!-- Generator: Adobe Illustrator 27.5.0, SVG Export Plug-In . SVG Version: 6.00 Build 0)  -->
<svg version="1.1" xmlns="http://www.w3.org/2000/svg" xmlns:xlink="http://www.w3.org/1999/xlink" x="0px" y="0px"
	 viewBox="0 0 500 500" style="enable-background:new 0 0 500 500;" xml:space="preserve">
<g id="BACKGROUND">
	<g>
		<rect style="fill:#9DD2FF;" width="500" height="500"/>
		<polygon style="fill:#B9DFFF;" points="468.023,388.945 468.023,367.145 438.11,367.145 438.11,421.816 417.486,421.816 
			417.486,407.795 404.296,391.791 404.296,408.775 388.69,408.775 388.69,462.051 376.522,462.051 376.522,394.288 
			352.161,394.288 352.161,426.013 335.363,426.013 335.363,404.04 324.621,417.813 324.621,467.997 311.911,467.997 311.911,500 
			388.69,500 402.566,500 500,500 500,388.945 		"/>
		<polygon style="fill:#B9DFFF;" points="275.626,429.551 275.626,415.722 256.651,415.722 256.651,450.404 243.567,450.404 
			243.567,441.509 235.201,431.356 235.201,442.13 225.301,442.13 225.301,475.926 217.582,475.926 217.582,432.94 202.128,432.94 
			202.128,453.065 191.472,453.065 191.472,439.127 184.658,447.864 184.658,479.699 176.595,479.699 176.595,500 225.301,500 
			234.103,500 295.911,500 295.911,429.551 		"/>
		<g>
			<defs>
				<rect id="SVGID_11_" width="500" height="500"/>
			</defs>
			<clipPath id="SVGID_00000173126792226911718270000001868796584066622395_">
				<use xlink:href="#SVGID_11_"  style="overflow:visible;"/>
			</clipPath>
			<g style="clip-path:url(#SVGID_00000173126792226911718270000001868796584066622395_);">
				<g>
					<path style="fill:#73BFFF;" d="M286.25,450.634c-0.067-0.596-0.086-0.835-0.132-1.283c-0.074-0.713-0.687-6.524-1.666-9.431
						c-1.615-4.796-6.174-7.474-8.336-8.744c-2.074-1.219-7.66-4.499-13.359-2.908c-2.517,0.703-2.871,1.746-7.682,3.415
						c-3.532,1.225-3.831,0.833-5.854,1.783c-0.988,0.464-5.048,2.37-7.324,6.728c-2.008,3.845-1.601,7.635-1.301,10.439
						c0.378,3.524,1.187,3.774,1.85,8.231c0.824,5.541-0.295,6.045,0.549,8.236c2.601,6.751,15.39,7.598,18.118,7.779
						c6.609,0.438,11.427-1.221,13.272-1.94c1.956-0.762,4.399-1.739,6.927-3.965c1.479-1.302,6.694-5.893,6.161-10.934
						C287.329,456.689,286.737,454.976,286.25,450.634z"/>
					<path style="fill:#73BFFF;" d="M342.745,415.544c1.591-4.161,1.244-8.265,0.549-16.473c-1.113-13.157-1.67-19.735-6.04-25.259
						c-4.519-5.711-10.547-7.804-18.121-10.433c-1.771-0.615-9.903-3.342-20.866-3.295c-4.36,0.019-8.581,0.745-17.022,2.196
						c-11.225,1.93-13.111,3.141-14.407,4.295c-3.087,2.746-2.97,5.287-5.91,13.277c-4.373,11.884-6.438,11.172-7.817,17.276
						c-2.841,12.579,4.074,23.805,5.004,25.268c1.018,1.602,7.905,12.097,20.385,15.112c3.278,0.792,2.803,0.068,12.629,0.549
						c16.622,0.814,18.975,2.935,25.371,0.918c3.983-1.256,6.828-3.523,12.518-8.056
						C335.481,425.768,340.304,421.926,342.745,415.544z"/>
					<path style="fill:#73BFFF;" d="M315.772,618.769h-22.159l3.693-118.886c0,0-31.085-12.507-33.829-54.341
						c-0.032-0.487,0.458-0.683,0.752-0.478c0.143,0.099,0.187,0.273,0.2,0.334c1.089,5.12,2.897,10.104,3.55,15.298
						c0.575,4.57,2.824,7.5,7.321,13.361c7.033,9.165,15.964,13.681,21.245,15.799c0.307-16.063,0.573-26.441,0.792-33.563
						c0.054-1.749,0.146-4.652,0.111-8.592c-0.06-6.639-0.443-11.763-0.915-17.937c-0.546-7.131,0.949-14.272,1.326-21.413
						c0.002-0.028,0.009-0.138,0.085-0.211c0.151-0.147,0.453-0.082,0.472,0.203c0.943,13.605,1.886,27.209,2.829,40.814
						c0.503,7.264,1.007,14.527,1.511,21.791c0.028-0.026,0.07-0.056,0.122-0.056c1.582-0.003,2.555,28.506,3.758,49.909
						C306.635,520.798,307.12,529.439,315.772,618.769L315.772,618.769z"/>
					<path style="fill:#73BFFF;" d="M314.521,419.806c3.858,11.407-3.375,24.242-14.821,26.776l-0.437,4.816
						c0,0,27.837-10.256,15.6-31.756C314.762,419.466,314.455,419.613,314.521,419.806z"/>
					<path style="fill:#73BFFF;" d="M257.096,457.839c1.274,7.418,5.491,12.792,11.635,9.172l1.286,2.419
						c0,0-12.054,6.374-13.083-11.561C256.927,457.741,257.075,457.713,257.096,457.839z"/>
				</g>
				<g>
					<path style="fill:#7AC2FF;" d="M367.026,359.47c-0.015,0.16-0.125,0.739-0.166,1.531c-0.133,2.548,0.492,4.387,0.661,5.064
						c0.726,2.908-1.553,6.063-3.615,8.92c-1.293,1.791-4.291,5.943-9.617,7.692c-3.485,1.145-4.635,0.166-10.629,1.571
						c-3.467,0.813-4.157,1.392-6.163,1.897c-8.198,2.066-19.836-1.772-22.76-8.416c-1.257-2.856,0.336-3.414-1.085-8.577
						c-1.547-5.622-3.665-5.792-4.009-9.683c-0.29-3.281,1.218-3.133,2.924-10.902c0.975-4.438,0.681-5.389,1.919-7.191
						c1.54-2.239,3.598-3.102,7.481-4.817c13.01-5.747,11.769-5.717,13.463-6.009c7.288-1.256,13.456,1.106,16.682,2.314
						c3.261,1.221,6.075,2.276,8.707,4.729C368.406,344.668,367.287,356.674,367.026,359.47z"/>
					<path style="fill:#7AC2FF;" d="M403.476,392.146c0.088-0.745,0.113-1.043,0.174-1.603c0.097-0.891,0.905-8.153,2.194-11.784
						c2.127-5.993,8.13-9.34,10.977-10.926c2.732-1.523,10.087-5.622,17.592-3.633c3.315,0.879,3.78,2.182,10.116,4.267
						c4.651,1.531,5.044,1.041,7.709,2.228c1.301,0.58,6.648,2.962,9.645,8.408c2.645,4.805,2.109,9.541,1.713,13.044
						c-0.498,4.403-1.564,4.716-2.436,10.285c-1.084,6.925,0.389,7.554-0.723,10.292c-3.426,8.436-20.266,9.494-23.858,9.72
						c-8.702,0.547-15.048-1.526-17.477-2.424c-2.575-0.952-5.793-2.173-9.122-4.954c-1.947-1.627-8.815-7.364-8.113-13.663
						C402.055,399.712,402.834,397.572,403.476,392.146z"/>
					<path style="fill:#7AC2FF;" d="M337.151,345.48c-2.095-5.199-1.638-10.328-0.723-20.585
						c1.466-16.441,2.199-24.661,7.954-31.563c5.95-7.136,13.888-9.751,23.862-13.037c2.332-0.768,13.041-4.177,27.477-4.117
						c5.741,0.024,11.299,0.931,22.415,2.745c14.782,2.412,17.264,3.925,18.972,5.367c4.065,3.432,3.91,6.606,7.782,16.59
						c5.759,14.851,8.478,13.96,10.294,21.588c3.742,15.718-5.365,29.747-6.589,31.575c-1.341,2.002-10.41,15.116-26.844,18.884
						c-4.317,0.99-3.691,0.085-16.631,0.686c-21.888,1.017-24.987,3.668-33.409,1.147c-5.244-1.569-8.991-4.402-16.483-10.067
						C346.716,358.256,340.365,353.455,337.151,345.48z"/>
					<g>
						<g>
							<path style="fill:#7AC2FF;" d="M444.699,394.901c-1.656,9.147-7.087,15.799-15.005,11.626
								c1.897-6.169,3.239-13.058,3.771-20.745c0.042-0.608-0.604-0.854-0.99-0.598c-0.188,0.124-0.246,0.341-0.263,0.417
								c-1.434,6.398-3.814,12.627-4.675,19.117c-0.757,5.711-3.718,9.372-9.641,16.696c-9.261,11.452-21.022,17.095-27.975,19.742
								c-0.404-20.073-0.754-33.04-1.043-41.941c-0.071-2.186-0.193-5.814-0.146-10.737c0.079-8.296,0.583-14.7,1.205-22.414
								c0.719-8.91-1.249-17.834-1.747-26.758c-0.002-0.035-0.012-0.172-0.112-0.264c-0.199-0.184-0.596-0.102-0.622,0.253
								c-1.242,17-2.484,34.001-3.726,51.001c-0.663,9.077-1.326,18.153-1.989,27.229c-4.988-4.244-11.832-10.851-18.077-20.127
								c-10.365-15.396-13.342-29.621-13.966-29.44c-0.556,0.161,1.734,11.397,7.16,24.771c-11.314,4.125-24.28-4.349-27.292-18.477
								c-0.053-0.247-0.408-0.193-0.396,0.059c1.232,25.811,22.724,24.35,29.729,23.18c4.697,10.344,11.488,21.105,21.228,29.183
								c-3.891,144.062-15.526,175.57-15.526,175.57h29.179l-4.863-148.559c0,0,27.965-10.68,39.706-43.905
								c3.421,1.291,15.133,4.273,16.289-14.842C444.922,394.779,444.727,394.744,444.699,394.901z"/>
						</g>
					</g>
				</g>
				<g>
					<path style="fill:#6BB2ED;" d="M359.004,472.809c-0.078,0.122-0.403,0.543-0.769,1.159c-1.176,1.985-1.509,3.692-1.675,4.297
						c-0.714,2.599-3.686,4.253-6.376,5.75c-1.686,0.938-5.597,3.114-10.158,2.484c-2.984-0.412-3.393-1.632-8.285-2.792
						c-2.83-0.671-3.57-0.471-5.222-0.83c-6.753-1.47-13.467-8.967-12.744-15.388c0.311-2.76,1.689-2.599,2.862-7.265
						c1.276-5.08-0.169-6.022,1.235-9.261c1.184-2.732,2.202-2.039,6.722-7.596c2.582-3.175,2.774-4.046,4.427-5.014
						c2.054-1.202,3.895-1.108,7.406-1c11.764,0.362,10.862-0.087,12.2,0.325c5.757,1.771,9.176,6.006,10.976,8.199
						c1.819,2.217,3.389,4.131,4.234,7.093C366.274,461.51,360.377,470.675,359.004,472.809z"/>
					<g>
						<g>
							<path style="fill:#6BB2ED;" d="M342.981,472.994c-0.467-0.083-3.593,9.765-5.378,22.514
								c-9.859-1.012-15.559-12.717-11.723-25.151c0.067-0.218-0.21-0.31-0.309-0.103c-10.071,21.096,5.962,28.106,11.475,29.835
								c-0.671,6.604-0.771,13.695,0.248,20.667c2.074-0.476,4.023-1.251,5.721-2.455c-1.152-4.562-2.163-10.111-2.514-16.471
								C339.604,485.584,343.506,473.087,342.981,472.994z"/>
						</g>
					</g>
				</g>
				<g>
					<path style="fill:#6BB2ED;" d="M450.043,479.137c-0.078,0.122-0.403,0.543-0.769,1.16c-1.176,1.985-1.509,3.692-1.675,4.297
						c-0.714,2.599-3.685,4.253-6.376,5.75c-1.686,0.938-5.597,3.114-10.158,2.484c-2.984-0.412-3.393-1.632-8.285-2.792
						c-2.83-0.671-3.57-0.471-5.222-0.831c-6.753-1.47-13.467-8.967-12.744-15.388c0.311-2.76,1.689-2.599,2.862-7.265
						c1.276-5.08-0.169-6.022,1.235-9.261c1.184-2.732,2.202-2.039,6.722-7.596c2.582-3.175,2.775-4.046,4.427-5.014
						c2.054-1.203,3.895-1.108,7.406-1c11.764,0.362,10.862-0.087,12.2,0.325c5.757,1.771,9.176,6.006,10.976,8.199
						c1.819,2.217,3.389,4.131,4.234,7.092C457.313,467.839,451.416,477.004,450.043,479.137z"/>
					<g>
						<g>
							<path style="fill:#6BB2ED;" d="M423.587,472.994c-0.493-0.087-3.945,10.875-5.661,24.641
								c-0.907,7.281-1.173,15.278-0.026,23.121c2.074-0.476,4.023-1.251,5.721-2.455c-1.152-4.562-2.163-10.111-2.514-16.471
								C420.21,485.584,424.112,473.087,423.587,472.994z"/>
						</g>
					</g>
				</g>
			</g>
		</g>
		<path style="fill:#E3F2FF;" d="M32.332,111.165c0.913,3.774,18.532,0.336,22.628,1.518c4.096,1.183,16.846-0.91,21.609-0.134
			c20.507,3.338,28.959-4.065,19.598-3.97c-13.772,0.139-12.593-10.223-20.999-5.897c-8.406,4.326-16.101-11.333-24.256-4.784
			C42.757,104.448,33.287,102.892,32.332,111.165z"/>
		<g>
			<g>
				<path style="fill:#D5ECFF;" d="M68.858,72.144c5.366,0.709,10.785,0.503,16.17,0.144c5.445-0.363,10.887-0.758,16.337-1.064
					c10.929-0.613,21.869-1.012,32.813-1.197c5.472-0.092,10.945-0.132,16.418-0.117c2.778,0.007,5.556,0.029,8.333,0.063
					c2.362,0.03,4.851,0.077,7.041-0.947c1.656-0.774,3.157-2.269,3.5-4.118c0.348-1.882-0.567-3.659-1.961-4.881
					c-1.671-1.465-3.794-2.038-5.931-2.452c-2.286-0.443-4.512-0.869-6.606-1.937c-3.751-1.912-6.699-5.034-9.539-8.07
					c-2.907-3.107-5.825-6.129-9.364-8.531c-6.856-4.653-15.636-7.379-23.846-5.136c-4.529,1.237-8.31,4.041-12.171,6.59
					c-3.978,2.625-8.554,5.171-13.491,4.782c-2.419-0.191-4.538-1.321-6.773-2.152c-2.004-0.745-4.072-1.055-6.167-0.507
					c-1.922,0.503-3.693,1.628-4.917,3.198c-1.035,1.328-1.825,2.837-2.757,4.235c-0.789,1.183-1.708,2.247-2.956,2.961
					c-1.589,0.911-3.392,1.18-5.153,1.574c-1.435,0.321-2.963,0.76-4.001,1.869c-1.111,1.186-1.462,2.913-1.448,4.493
					c0.056,6.405,7.201,9.239,12.442,10.467c1.298,0.304,2.611,0.541,3.931,0.72c0.446,0.061,0.639-0.622,0.188-0.683
					c-2.797-0.381-5.588-1.001-8.221-2.032c-2.63-1.03-5.382-2.59-6.781-5.149c-1.383-2.53-1.303-6.663,1.522-8.163
					c1.465-0.777,3.185-0.926,4.773-1.312c1.483-0.36,2.936-0.916,4.136-1.878c2.449-1.962,3.325-5.186,5.5-7.372
					c1.469-1.476,3.5-2.396,5.581-2.507c2.273-0.121,4.347,0.843,6.399,1.686c2.103,0.864,4.217,1.415,6.509,1.272
					c2.199-0.137,4.328-0.781,6.337-1.662c4.279-1.877,7.876-4.926,11.902-7.247c3.749-2.161,7.826-3.355,12.169-3.269
					c4.183,0.083,8.307,1.234,12.068,3.033c3.813,1.825,7.289,4.31,10.302,7.27c2.892,2.842,5.471,5.999,8.525,8.677
					c1.466,1.286,3.044,2.463,4.776,3.369c1.916,1.002,3.941,1.53,6.056,1.926c2.193,0.411,4.509,0.811,6.291,2.258
					c1.595,1.295,2.614,3.359,1.676,5.357c-0.942,2.008-3.071,3.036-5.163,3.374c-2.53,0.409-5.188,0.17-7.74,0.148
					c-5.307-0.046-10.614-0.041-15.921,0.014c-10.53,0.109-21.059,0.417-31.578,0.922c-5.301,0.255-10.599,0.56-15.895,0.915
					c-5.241,0.352-10.486,0.846-15.743,0.832c-2.533-0.007-5.064-0.146-7.577-0.478C68.407,71.376,68.411,72.085,68.858,72.144z"/>
			</g>
		</g>
		<path style="fill:#E3F2FF;" d="M142.738,418.932c0.946,3.908,19.193,0.348,23.435,1.572c4.242,1.225,17.448-0.942,22.38-0.139
			c21.239,3.458,29.993-4.21,20.297-4.112c-14.264,0.144-13.042-10.588-21.748-6.107c-8.706,4.481-16.676-11.738-25.122-4.954
			C153.535,411.975,143.727,410.364,142.738,418.932z"/>
	</g>
</g>
<g id="OBJECTS">
	<g>
		<g>
			<path style="fill:#E3F2FF;" d="M314.424,204.077c0-4.447,3.605-8.053,8.053-8.053c4.447,0,8.053,3.605,8.053,8.053H314.424z"/>
			<rect x="321.87" y="116.526" style="fill:#E3F2FF;" width="1.212" height="85.72"/>
			<g>
				
					<rect x="295.363" y="116.42" transform="matrix(0.866 -0.5 0.5 0.866 -20.314 174.4901)" style="fill:#FF5944;" width="40.167" height="17.464"/>
				<polygon style="fill:#FF5944;" points="339.159,135.88 318.012,99.252 346.899,106.992 				"/>
			</g>
		</g>
		<g>
			
				<polyline style="fill:none;stroke:#272532;stroke-width:0.7087;stroke-linecap:round;stroke-linejoin:round;stroke-miterlimit:10;" points="
				251.744,268.197 272.278,265.278 293.809,266.778 295.215,294.476 249.998,295.226 204.777,292.976 204.777,266.778 
				216.55,266.778 			"/>
		</g>
		<g>
			<g>
				<g>
					<path style="fill:#FABCB3;" d="M166.177,320.027c1.702,3.348,4.618-3.324,10.449-4.482c-0.649-0.87-1.099-8.492-0.278-9.783
						c-7.29-3.831-12.693-2.715-12.693-2.715l-1.887,12.882C163.263,316.133,165,317.713,166.177,320.027z"/>
					<path style="fill:#FFFFFF;" d="M189.294,321.543c-1.061,0.995-2.527,2.925-3.169,6.353c-10.706,0.139-20.44-2.775-24.822-4.319
						l-0.181,2.973c10.861,4.067,29.037,5.713,32.009,1.056C192.544,324.696,191.106,322.838,189.294,321.543z"/>
					<path style="fill:#796A6F;stroke:#796A6F;stroke-width:0.7087;stroke-miterlimit:10;" d="M186.124,327.896
						c0.642-3.428,2.109-5.358,3.169-6.353c-4.205-3.005-10.416-2.978-12.667-5.998c-5.83,1.158-8.747,7.83-10.449,4.482
						c-1.177-2.315-2.914-3.894-4.409-4.098l-0.466,7.647C165.685,325.12,175.418,328.035,186.124,327.896z"/>
				</g>
				<path style="fill:none;stroke:#FFFFFF;stroke-width:0.7087;stroke-miterlimit:10;" d="M183.909,324.06c0,0,1.338-3.69,2.5-4.072
					"/>
				
					<line style="fill:none;stroke:#FFFFFF;stroke-width:0.7087;stroke-miterlimit:10;" x1="179.431" y1="322.395" x2="183.326" y2="318.895"/>
				
					<line style="fill:none;stroke:#FFFFFF;stroke-width:0.7087;stroke-miterlimit:10;" x1="176.937" y1="321.166" x2="179.719" y2="317.67"/>
				
					<line style="fill:none;stroke:#FFFFFF;stroke-width:0.7087;stroke-miterlimit:10;" x1="173.789" y1="319.219" x2="177.763" y2="316.629"/>
				<path style="fill:none;stroke:#272532;stroke-width:0.7087;stroke-miterlimit:10;" d="M171.962,317.772
					c0,0,5.17,4.941,15.068,7.1"/>
			</g>
			<path style="fill:#338D99;" d="M157.68,191.533l8.897,58.262l-4.447,57.197l17.722,4.183c0,0,7.123-51.892,9.074-61.562
				c1.951-9.67,0.592-63.618,0.592-63.618L157.68,191.533z"/>
			
				<line style="fill:none;stroke:#2B7680;stroke-width:0.7087;stroke-miterlimit:10;" x1="162.949" y1="297.561" x2="181.393" y2="301.321"/>
			<g>
				<g>
					<path style="fill:#FABCB3;" d="M125.868,301.594c-1.289,3.528,5.581,1.112,10.403,4.588c0.194-1.068,2.445-9.19,3.663-10.116
						c-5.508-6.121-10.101-6.385-10.101-6.385l-3.973,5.894C126.73,296.807,126.759,299.155,125.868,301.594z"/>
					<path style="fill:#FFFFFF;" d="M140.52,319.538c-1.451-0.098-3.862,0.145-6.808,2.013
						c-7.401-7.737-11.905-16.845-13.764-21.104l-2.299,1.894c4.43,10.718,15.618,25.138,21.05,24.137
						C140.429,324.065,140.808,321.746,140.52,319.538z"/>
					<path style="fill:#796A6F;stroke:#796A6F;stroke-width:0.7087;stroke-miterlimit:10;" d="M133.711,321.551
						c2.946-1.867,5.357-2.11,6.808-2.013c-0.669-5.125-4.922-9.65-4.249-13.356c-4.822-3.476-11.692-1.06-10.403-4.588
						c0.891-2.439,0.862-4.787-0.008-6.019l-5.912,4.872C121.806,304.705,126.31,313.813,133.711,321.551z"/>
				</g>
				<path style="fill:none;stroke:#FFFFFF;stroke-width:0.7087;stroke-miterlimit:10;" d="M135.007,317.315
					c0,0,3.612-1.537,4.683-0.947"/>
				
					<line style="fill:none;stroke:#FFFFFF;stroke-width:0.7087;stroke-miterlimit:10;" x1="133.172" y1="312.904" x2="138.388" y2="313.367"/>
				
					<line style="fill:none;stroke:#FFFFFF;stroke-width:0.7087;stroke-miterlimit:10;" x1="132.37" y1="310.241" x2="136.825" y2="309.893"/>
				
					<line style="fill:none;stroke:#FFFFFF;stroke-width:0.7087;stroke-miterlimit:10;" x1="131.649" y1="306.611" x2="136.253" y2="307.753"/>
				<path style="fill:none;stroke:#272532;stroke-width:0.7087;stroke-miterlimit:10;" d="M131.462,304.288
					c0,0-0.09,7.151,5.079,15.864"/>
			</g>
			<path style="fill:#338D99;" d="M155.511,181.936c-1.44,3.79-3.307,9.599-4.259,16.873c-1.251,9.559-0.002,14.635-0.255,24.255
				c-0.149,5.675-0.845,13.822-3.416,23.733c-7.136,15.164-14.273,30.327-21.409,45.491l15.171,10.07
				c0,0,23.841-41.551,28.006-50.494c4.165-8.943,15.502-61.704,15.502-61.704L155.511,181.936z"/>
			
				<line style="fill:none;stroke:#2B7680;stroke-width:0.7087;stroke-miterlimit:10;" x1="130.211" y1="283.726" x2="146.205" y2="293.65"/>
			<polyline style="fill:none;stroke:#2B7680;stroke-width:0.7087;stroke-miterlimit:10;" points="165.567,261.412 166.576,249.795 
				157.68,210.872 			"/>
			<path style="fill:none;stroke:#2B7680;stroke-width:0.7087;stroke-miterlimit:10;" d="M179.09,194.503
				c0,0,1.397,51.242-0.072,57.625c-1.469,6.383-6.426,47.313-6.426,47.313"/>
			
				<line style="fill:none;stroke:#2B7680;stroke-width:0.7087;stroke-miterlimit:10;" x1="139.69" y1="289.608" x2="164.953" y2="242.694"/>
			<path style="fill:none;stroke:#2B7680;stroke-width:0.7087;stroke-miterlimit:10;" d="M153.831,186.86
				c0,0,18.761,11.333,36.147,7.903"/>
			<path style="fill:#FF5944;" d="M154.456,181.982c0,0,15.549,15.05,35.181,13.011c14.079-36.134,18.378-49.471,8.809-61.929
				c-7.946-4.839-19.459-4.84-22.427-0.82S154.456,181.982,154.456,181.982z"/>
			<path style="fill:none;stroke:#B33E30;stroke-width:0.7087;stroke-miterlimit:10;" d="M155.015,180.673
				c0,0,13.137,12.248,35.155,12.375"/>
			<path style="fill:#FF5944;" d="M202.138,139.588c3.944,14.254,2.565,29.863,2.565,29.863l-12.197,0.038L202.138,139.588z"/>
			<path style="fill:#FABCB3;" d="M187.359,129.46c0,0,5.74,11.137,11.065,11.56c5.325,0.423,0.445-8.378,0.445-8.378
				S192.232,129.26,187.359,129.46z"/>
			<polygon style="fill:#FABCB3;" points="189.798,130.013 194.588,122.982 202.707,128.513 197.575,136.046 			"/>
			<path style="fill:#FABCB3;" d="M198.416,126.48c0,0,2.422,7.967,6.942,7.808c1.653-0.16,5.17-5.335,5.866-8.038
				c0.577-2.241,4.559-5.749,0.737-10.53c-3.822-4.78-11.497-6.835-15.085-1.673C193.288,119.21,192.212,122.838,198.416,126.48z"/>
			<path style="fill:#FABCB3;" d="M211.124,126.284c-0.606,0.943,0.392,2.418,0.06,3.078c-0.406,0.807-1.882,0.117-1.882,0.117"/>
			<path d="M209.574,125.442c-0.251,0.401-0.588,0.643-0.753,0.539c-0.165-0.103-0.095-0.512,0.156-0.913
				c0.251-0.401,0.588-0.642,0.753-0.539C209.895,124.632,209.825,125.041,209.574,125.442z"/>
			<path style="fill:none;stroke:#BA7E76;stroke-width:0.7087;stroke-miterlimit:10;" d="M206.827,129.832
				c0,0,0.598,1.241,1.79,1.633"/>
			<path style="fill:#B07330;" d="M202.419,121.075c0,0,0.558-0.422-0.602,1.878c1.917,1.2,1.917,1.2,1.917,1.2
				s-0.027-0.53,0.099-1.129c0.038-0.179,0.292-0.973,1.018-1.547c0.701-0.554,1.151-0.345,1.708-0.7
				c0.506-0.322,1.02-1.058,1.053-2.872c1.545,1.754,3.137,2.573,4.117,2.968c1.175,0.474,2.398,0.966,3.351,0.383
				c1.132-0.692,1.144-2.448,1.149-3.064c0.016-2.151-1.203-3.726-1.819-4.5c-0.965-1.212-2.093-1.91-4.309-3.255
				c-2.395-1.455-3.592-2.182-4.883-2.394c-2.341-0.384-4.235,0.373-5.936,1.053c-1.436,0.574-2.713,1.104-3.638,2.394
				c-0.503,0.701-0.373,0.889-1.149,2.585c-1.202,2.626-1.592,2.348-1.915,3.638c-0.608,2.427,0.464,4.646,0.686,5.084
				c0.2,0.395,0.403,0.705,0.554,0.921c2.765,0.35,4.575-1.47,4.575-1.47l1.796-0.511L202.419,121.075z"/>
			<path style="fill:#FABCB3;" d="M202.53,121.176c-0.75-5.353-8.436-0.194-2.921,4.112"/>
			<path style="fill:none;stroke:#BA7E76;stroke-width:0.7087;stroke-miterlimit:10;" d="M199.813,126.273
				c0,0-1.212,2.023,1.092,5.258"/>
			<path style="fill:none;stroke:#BA7E76;stroke-width:0.7087;stroke-miterlimit:10;" d="M209.579,129.642
				c-0.725-0.213-0.985-0.656-0.695-1.099"/>
			<path style="fill:none;stroke:#BA7E76;stroke-width:0.7087;stroke-miterlimit:10;" d="M209.639,123.155
				c0.642-0.328,1.134-0.016,1.134-0.016"/>
			
				<line style="fill:none;stroke:#BA7E76;stroke-width:0.7087;stroke-miterlimit:10;" x1="199.309" y1="133.502" x2="197.575" y2="136.046"/>
			
				<line style="fill:none;stroke:#BA7E76;stroke-width:0.7087;stroke-miterlimit:10;" x1="190.799" y1="128.543" x2="189.611" y2="130.383"/>
			<path style="fill:none;stroke:#B33E30;stroke-width:0.7087;stroke-miterlimit:10;" d="M185.885,129.351
				c3.743,10.282,14.636,18.431,16.253,10.238"/>
			<path style="fill:none;stroke:#B33E30;stroke-width:0.7087;stroke-miterlimit:10;" d="M203.503,146.483
				c1.098,7.72-4.906,24.483-4.906,24.483"/>
			<g>
				<path style="fill:#FABCB3;" d="M164.307,175.277c-2.263-7.226,4.55-26.22,4.55-26.22l14.032,4.014l-3.226,16.515
					L164.307,175.277z"/>
				<path style="fill:#FF5944;" d="M176.493,131.54c-5.639,4.233-11.674,23.696-11.674,23.696
					c5.864,3.618,17.456,5.011,17.456,5.011l5.494-14.813"/>
				<polyline style="fill:none;stroke:#B33E30;stroke-width:0.7087;stroke-miterlimit:10;" points="180.505,159.993 
					182.275,160.247 185.644,149.082 				"/>
				<path style="fill:none;stroke:#B33E30;stroke-width:0.7087;stroke-miterlimit:10;" d="M165.567,152.954
					c0,0,9.367,5.483,17.431,4.895"/>
			</g>
			
				<line style="fill:none;stroke:#2B6600;stroke-width:0.7087;stroke-miterlimit:10;" x1="200.048" y1="166.77" x2="204.845" y2="167.079"/>
			<g>
				
					<rect x="193.632" y="87.104" transform="matrix(0.8863 -0.4631 0.4631 0.8863 -56.7327 112.8566)" style="fill:#FECE19;" width="15.641" height="169.708"/>
				
					<rect x="199.904" y="87.068" transform="matrix(0.8863 -0.4632 0.4632 0.8863 -56.8445 112.9562)" style="fill:#3D3B46;" width="3.386" height="170.331"/>
				
					<rect x="205.852" y="84.575" transform="matrix(0.8863 -0.4632 0.4632 0.8863 -55.1489 114.8886)" style="fill:#3D3B46;" width="1.03" height="170.331"/>
				
					<rect x="196.311" y="89.561" transform="matrix(0.8863 -0.4631 0.4631 0.8863 -58.5376 111.0148)" style="fill:#3D3B46;" width="1.03" height="170.331"/>
				<polygon style="fill:#D4B781;" points="247.684,243.54 233.821,250.785 251.744,268.197 				"/>
				<path style="fill:#272532;" d="M251.744,268.197l-1.152-6.993c-0.666,0.271-1.353,0.582-2.058,0.953
					c-0.675,0.354-1.294,0.726-1.873,1.102L251.744,268.197z"/>
				<path style="fill:#D4B781;" d="M233.821,250.785c-2.36-3.903,0.931-4.871,3.235-1.69c-1.533-5.287,2.358-5.109,3.697-1.932
					c-2.148-6.362,2.171-5.772,3.487-1.822c-2.002-6.185,1.839-5.282,3.445-1.8C244.086,249.551,235.358,251.373,233.821,250.785z"
					/>
				<path style="fill:#D4B781;" d="M169.084,93.131c0.313,0.599-2.537,2.706-6.365,4.707c-3.828,2-7.185,3.137-7.498,2.538
					c-0.313-0.599,2.537-2.706,6.365-4.706C165.414,93.668,168.771,92.532,169.084,93.131z"/>
				<path style="fill:#3D3B46;" d="M164.39,95.584c0.101,0.193-0.819,0.873-2.054,1.519s-2.319,1.012-2.42,0.819
					c-0.101-0.193,0.819-0.873,2.054-1.519C163.205,95.757,164.289,95.391,164.39,95.584z"/>
			</g>
			<g>
				<path style="fill:#FABCB3;" d="M179.664,169.587l27.513,17.562l-9.1,6.709c0,0-31.508-11.355-33.77-18.581"/>
				<path style="fill:#FABCB3;" d="M203.886,184.874c0,0,4.976,0.86,8.138,2.354c3.163,1.494,5.65,3.285,5.236,4.207
					c-0.983,2.186-5.731-0.63-5.731-0.63s8.551,2.945,7.966,4.742c-0.862,2.649-8.137-1.273-8.137-1.273s7.636,2.925,6.825,4.48
					c-1.28,2.457-7.995-1.426-7.995-1.426s4.752,2.308,3.864,3.84c-0.811,1.397-7.456-2.846-7.456-2.846s4.608,3.312,3.357,4.106
					c-1.252,0.794-12.299-4.467-14.406-10.082"/>
				
					<line style="fill:none;stroke:#BA7E76;stroke-width:0.7087;stroke-miterlimit:10;" x1="206.141" y1="197.874" x2="208.268" y2="199.652"/>
				
					<line style="fill:none;stroke:#BA7E76;stroke-width:0.7087;stroke-miterlimit:10;" x1="208.635" y1="195.983" x2="211.728" y2="198.193"/>
				
					<line style="fill:none;stroke:#BA7E76;stroke-width:0.7087;stroke-miterlimit:10;" x1="210.325" y1="193.892" x2="214.531" y2="195.701"/>
				
					<line style="fill:none;stroke:#BA7E76;stroke-width:0.7087;stroke-miterlimit:10;" x1="211.067" y1="190.794" x2="215.467" y2="192.255"/>
			</g>
			<path style="fill:#FABCB3;" d="M209.639,166.255c-5.342,5.909-2.73,7.947,0.638,4.309c-3.047,6.128-0.215,7.277,2.151,3.447
				c-2.9,6.511,0.309,6.606,2.103,3.16c-2.705,7.181,2.121,5.016,2.791,1.502C221.439,172.67,213.267,162.243,209.639,166.255z"/>
			
				<line style="fill:none;stroke:#BA7E76;stroke-width:0.7087;stroke-miterlimit:10;" x1="211.807" y1="174.885" x2="213.599" y2="172.191"/>
			
				<line style="fill:none;stroke:#BA7E76;stroke-width:0.7087;stroke-miterlimit:10;" x1="209.799" y1="171.044" x2="211.067" y2="168.649"/>
			
				<line style="fill:none;stroke:#BA7E76;stroke-width:0.7087;stroke-miterlimit:10;" x1="214.084" y1="177.907" x2="215.467" y2="175.277"/>
		</g>
		<path style="fill:none;stroke:#99632A;stroke-width:0.7087;stroke-miterlimit:10;" d="M208.838,118.282
			c0,0,2.131-2.936-0.534-5.298"/>
		<path style="fill:none;stroke:#99632A;stroke-width:0.7087;stroke-miterlimit:10;" d="M211.384,120.005
			c0,0,1.468-1.93,0.702-3.327c-0.766-1.397,0.064-3.375-1.021-4.014"/>
		<path style="fill:none;stroke:#99632A;stroke-width:0.7087;stroke-miterlimit:10;" d="M214.129,116.679
			c-0.192,0.199,0.894,1.859,0,3.327"/>
		<path style="fill:none;stroke:#99632A;stroke-width:0.7087;stroke-miterlimit:10;" d="M204.937,115.92c0,0,0.766,1.277,0,2.808"/>
		<path style="fill:none;stroke:#99632A;stroke-width:0.7087;stroke-miterlimit:10;" d="M202.831,116.679c0,0,0.855,1.994,0,3.327"
			/>
		<path style="fill:none;stroke:#99632A;stroke-width:0.7087;stroke-miterlimit:10;" d="M199.617,116.679
			c0,0-1.986,1.021-2.45,2.844"/>
		<path style="fill:none;stroke:#99632A;stroke-width:0.7087;stroke-miterlimit:10;" d="M195.789,116.335
			c0,0-2.214,2.585-1.511,4.628"/>
		<path style="fill:none;stroke:#99632A;stroke-width:0.7087;stroke-miterlimit:10;" d="M199.031,113.239
			c0,0-0.936-0.128-0.898,1.915"/>
		<path style="fill:none;stroke:#99632A;stroke-width:0.7087;stroke-miterlimit:10;" d="M202.831,112.282
			c0,0,2.981,0.957,3.533,2.872"/>
		<path style="fill:none;stroke:#99632A;stroke-width:0.7087;stroke-miterlimit:10;" d="M203.85,110.303c0,0,2.3-0.476,3.066,1.358"
			/>
		
			<path style="fill:none;stroke:#272532;stroke-width:0.7087;stroke-linecap:round;stroke-linejoin:round;stroke-miterlimit:10;" d="
			M253.834,294.556c0,0,8.803-27.083,10.264-27.184c1.461-0.1-3.633,27.084-3.633,27.084s9.618-27.737,11.456-27.621
			c1.838,0.116-6.702,27.72-6.702,27.72l12.148-27.376l-7.008,29.47c0,0,15.832-30.526,14.321-29.814
			c-1.511,0.711-6.984,27.362-6.984,27.362l11.023-28.919l-5.138,28.83l8.763-25.982l-3.623,25.905l5.806-15.418l-2.118,15.362"/>
		<g>
			<g>
				<rect x="105.357" y="330.508" style="fill:#E0E0E1;" width="27.934" height="26.198"/>
				<g>
					<rect x="133.291" y="330.508" style="fill:#FFFFFF;" width="74.793" height="26.198"/>
				</g>
				<path style="fill:#E6E6E6;" d="M151.375,354.926h21.733c0.614,0,1.111-0.498,1.111-1.111v-7.735
					c0-0.614-0.498-1.111-1.111-1.111h-21.733c-0.614,0-1.112,0.498-1.112,1.111v7.735
					C150.263,354.428,150.761,354.926,151.375,354.926z"/>
				<path style="fill:#E6E6E6;" d="M138.134,342.737h21.733c0.614,0,1.111-0.498,1.111-1.111v-7.735
					c0-0.614-0.498-1.111-1.111-1.111h-21.733c-0.614,0-1.111,0.498-1.111,1.111v7.735
					C137.022,342.24,137.52,342.737,138.134,342.737z"/>
			</g>
			<g>
				<rect x="385.191" y="139.688" style="fill:#E0E0E1;" width="27.934" height="26.21"/>
				<g>
					<rect x="413.125" y="139.688" style="fill:#FFFFFF;" width="74.793" height="26.21"/>
				</g>
				<path style="fill:#E6E6E6;" d="M449.8,163.99h21.733c0.614,0,1.111-0.498,1.111-1.111v-7.735c0-0.614-0.498-1.111-1.111-1.111
					H449.8c-0.614,0-1.111,0.498-1.111,1.111v7.735C448.689,163.492,449.186,163.99,449.8,163.99z"/>
				<path style="fill:#E0E0E1;" d="M462.896,151.801h21.733c0.614,0,1.111-0.498,1.111-1.111v-7.735
					c0-0.614-0.498-1.111-1.111-1.111h-21.733c-0.614,0-1.111,0.498-1.111,1.111v7.735
					C461.785,151.304,462.283,151.801,462.896,151.801z"/>
			</g>
			<g>
				<rect x="291.917" y="203.298" style="fill:#E0E0E1;" width="27.934" height="26.198"/>
				<g>
					<rect x="319.85" y="203.298" style="fill:#FFFFFF;" width="74.787" height="26.198"/>
				</g>
				<path style="fill:#EBEBEC;" d="M354.609,227.607h21.733c0.614,0,1.111-0.498,1.111-1.111v-7.735
					c0-0.614-0.498-1.111-1.111-1.111h-21.733c-0.614,0-1.111,0.498-1.111,1.111v7.735
					C353.497,227.109,353.995,227.607,354.609,227.607z"/>
				<path style="fill:#E6E6E6;" d="M341.368,215.418h21.733c0.614,0,1.111-0.498,1.111-1.111v-7.735
					c0-0.614-0.498-1.111-1.111-1.111h-21.733c-0.614,0-1.112,0.498-1.112,1.111v7.735
					C340.256,214.921,340.754,215.418,341.368,215.418z"/>
				<path style="fill:#E0E0E1;" d="M367.705,215.418h21.733c0.614,0,1.111-0.498,1.111-1.111v-7.735
					c0-0.614-0.498-1.111-1.111-1.111h-21.733c-0.614,0-1.111,0.498-1.111,1.111v7.735
					C366.594,214.921,367.091,215.418,367.705,215.418z"/>
			</g>
			<g>
				<rect x="12.082" y="394.112" style="fill:#E0E0E1;" width="27.934" height="26.198"/>
				<g>
					<rect x="40.016" y="394.112" style="fill:#FFFFFF;" width="74.787" height="26.198"/>
				</g>
				<path style="fill:#E6E6E6;" d="M70.013,418.245h21.733c0.614,0,1.111-0.498,1.111-1.111v-7.735c0-0.614-0.498-1.111-1.111-1.111
					H70.013c-0.614,0-1.112,0.498-1.112,1.111v7.735C68.901,417.747,69.399,418.245,70.013,418.245z"/>
				<path style="fill:#E0E0E1;" d="M43.604,418.245h21.733c0.614,0,1.111-0.498,1.111-1.111v-7.735c0-0.614-0.498-1.111-1.111-1.111
					H43.604c-0.614,0-1.111,0.498-1.111,1.111v7.735C42.492,417.747,42.99,418.245,43.604,418.245z"/>
				<path style="fill:#EBEBEC;" d="M56.772,406.057h21.733c0.614,0,1.111-0.498,1.111-1.112v-7.735c0-0.614-0.498-1.111-1.111-1.111
					H56.772c-0.614,0-1.111,0.498-1.111,1.111v7.735C55.661,405.559,56.158,406.057,56.772,406.057z"/>
				<path style="fill:#E0E0E1;" d="M83.109,406.057h21.733c0.614,0,1.111-0.498,1.111-1.112v-7.735c0-0.614-0.498-1.111-1.111-1.111
					H83.109c-0.614,0-1.111,0.498-1.111,1.111v7.735C81.998,405.559,82.495,406.057,83.109,406.057z"/>
			</g>
		</g>
	</g>
</g>
<g id="TEXTS">
</g>
</svg>
