<?xml version="1.0" encoding="iso-8859-1"?>
<!-- Generator: Adobe Illustrator 19.0.1, SVG Export Plug-In . SVG Version: 6.00 Build 0)  -->
<svg version="1.1" xmlns="http://www.w3.org/2000/svg" xmlns:xlink="http://www.w3.org/1999/xlink" x="0px" y="0px"
	 viewBox="0 0 128 128" style="enable-background:new 0 0 128 128;" xml:space="preserve">
<g id="_x35_9">
	<path id="_x35_9_1_" style="fill:#171617;" d="M46.409,44.259c1.119,2.724,0.479,5.724-2.112,8.316
		c-2.591,2.592-5.038,5.15-6.019,6.023c-0.981,0.872-2.584,2.546-1.219,5.265c8.543,16.865,19.804,26.615,35.415,35.433
		c2.716,1.366,4.39-0.238,5.262-1.22c0.872-0.981,3.429-3.431,6.02-6.023c2.591-2.592,5.589-3.232,8.312-2.113l26.927,18.72
		c0,0-0.432,4.495-2.995,7.714c-0.519,0.652-1.239,1.521-2.187,2.489c-0.137,0.137-0.271,0.275-0.416,0.416
		c-3.481,3.408-9.735,7.791-20.03,8.467c-13.73,0.901-27.634-8.311-29.586-9.596C42.817,104.968,30.184,92.761,18.212,72.56
		C16.927,70.607,7.72,56.696,8.621,42.959c0.675-10.3,5.057-16.557,8.463-20.041c0.142-0.145,0.279-0.279,0.416-0.416
		c0.967-0.949,1.837-1.669,2.488-2.188c3.218-2.564,6.35-2.956,7.71-2.996C29.059,17.277,46.409,44.259,46.409,44.259z
		 M95.719,20.743V0.19H79.285v20.553H60.798v16.442h18.488v18.497h16.433V37.185h18.488V20.743H95.719z"/>
</g>
<g id="Layer_1">
</g>
</svg>
