<?xml version="1.0" encoding="utf-8"?><svg xmlns="http://www.w3.org/2000/svg" xmlns:xlink="http://www.w3.org/1999/xlink" viewBox="0 0 2791.13 810.7"><defs><linearGradient id="a" x1="37.41" y1="381.98" x2="844.17" y2="381.98" gradientTransform="matrix(1, 0, 0, -1, -37.41, 787.33)" gradientUnits="userSpaceOnUse"><stop offset="0" stop-color="#004689"/><stop offset="0.21" stop-color="#004689" stop-opacity="0.98"/><stop offset="0.38" stop-color="#004689" stop-opacity="0.9"/><stop offset="0.53" stop-color="#004689" stop-opacity="0.78"/><stop offset="0.68" stop-color="#004689" stop-opacity="0.61"/><stop offset="0.82" stop-color="#004689" stop-opacity="0.38"/><stop offset="0.95" stop-color="#004689" stop-opacity="0.11"/><stop offset="1" stop-color="#004689" stop-opacity="0"/></linearGradient><linearGradient id="b" x1="185" y1="352.48" x2="788.84" y2="352.48" gradientTransform="matrix(1, 0, 0, -1, -37.41, 787.33)" gradientUnits="userSpaceOnUse"><stop offset="0" stop-color="#6ba400" stop-opacity="0.93"/><stop offset="0.2" stop-color="#6ba400" stop-opacity="0.91"/><stop offset="0.36" stop-color="#6ba400" stop-opacity="0.85"/><stop offset="0.51" stop-color="#6ba400" stop-opacity="0.75"/><stop offset="0.65" stop-color="#6ba400" stop-opacity="0.6"/><stop offset="0.78" stop-color="#6ba400" stop-opacity="0.41"/><stop offset="0.91" stop-color="#6ba400" stop-opacity="0.19"/><stop offset="1" stop-color="#6ba400" stop-opacity="0"/></linearGradient></defs><path d="M74.68,428.27c0-203.25,164.77-368,368-368,175.76,0,322.74,123.58,359.28,288.34h4.8C779.16,151.61,610,0,405.34,0,181.49,0,0,181.46,0,405.35S181.49,810.7,405.36,810.7a403.54,403.54,0,0,0,193.87-49.29A366.51,366.51,0,0,1,442.7,796.29C239.45,796.29,74.68,631.52,74.68,428.27Z" style="fill:url(#a)"/><path d="M484.79,719.68c-154.7,0-280.11-125.41-280.11-280.11S330.09,159.46,484.79,159.46c124.7,0,230.35,81.49,266.64,194.13-35.64-130.33-154.84-226.13-296.5-226.13-169.77,0-307.34,137.62-307.34,307.39S285.16,742.23,454.93,742.23C562.44,742.23,657,687,712,603.41A279.73,279.73,0,0,1,484.79,719.68Z" style="fill:url(#b)"/><path d="M688.11,348.23l-184.74.71L443,597.41H610.67c26.74,0,118-13,118-85.69,0-49.57-49.85-47.5-49.85-47.5s65.29-16.08,65.29-69.24C744.14,346.23,688.11,348.23,688.11,348.23Zm-45.73,62.24C640.86,433.6,628.6,448,611.68,448H582l14.13-56.79h16c11.93,0,31.82-3.85,30.3,19.27ZM620.23,512.89c-2.7,22.2-15,41.61-30.79,41.61H555.59l16.23-66.79h28.63C613.59,487.71,622.92,490.68,620.23,512.89Z" style="fill:#004689"/><polygon points="889.03 348.6 794.99 348.6 781.29 404.97 875.24 404.97 889.03 348.6" style="fill:#004689"/><polygon points="734.49 597.41 828.45 597.41 870.09 420.89 777.4 420.89 734.49 597.41" style="fill:#004689"/><path d="M1153.41,570.06c-18.56,0-16.88-22.88-7.19-58.23S1165,449.21,1185.46,449c12.08-.14,14,15.15,8.84,38.29l92.06-4.07c5.91-41.7-27.62-67.1-92-67.1-82.5,0-131.76,42.12-145.36,94.08s17,93.07,95.13,93.07c74.83,0,117.82-31.38,131.74-73.55h-93C1176.81,556.69,1166.85,570.06,1153.41,570.06Z" style="fill:#004689"/><path d="M1484.59,417c-8.28.48-42.23.38-76.78,28.56l24.57-100.4-94.51,3.4-60.48,248.82h93.51l28.31-116.47s5-24.3,23.82-24.3c17.66,0,12.34,23.14,12.34,23.14l-29.18,117.63h95.51l32-130.31C1540.52,439.08,1522.36,416.75,1484.59,417Z" style="fill:#004689"/><path d="M1964.59,450.57l7.21-29.66h-31.63l11.7-48.14-95.41,17.58L1849,420.92h-22.88l-7.21,29.67h22.84l-24.7,99.88c-6.06,24.94,4.85,47,34.67,47,24.8,0,76.26-2.21,76.26-2.21l9.58-39.41h-10c-6.92,0-18.26-5.53-15-20.63s20.23-84.65,20.23-84.65Z" style="fill:#6ba400"/><path d="M984.76,461.35l9.07-40.51H902.74L859.83,597.41H951.7l21.88-90c7.49-30.13,41-39.44,75.94-28.1l14.82-61S1017.51,406.4,984.76,461.35Z" style="fill:#004689"/><path d="M2075.59,461.35l9.07-40.51h-91.07l-43,176.57h91.86l21.88-90c7.5-30.13,41-39.44,76-28.1l14.82-61S2108.31,406.4,2075.59,461.35Z" style="fill:#6ba400"/><path d="M2528.4,414.09c-82.5,0-123,31.84-139.42,95.08-20.12,77.69,23.76,94.07,96.36,94.07,62.29,0,117.28-22.06,128.77-66.14h-92.67s2,32.16-32.67,32.16c-31.06,0-9.25-54.27-9.25-54.27h137.19C2639.73,430,2605.06,414.09,2528.4,414.09Zm3.86,70.57H2490s8.33-37.69,29.85-37.69c22.93,0,12.43,37.69,12.43,37.69Z" style="fill:#6ba400"/><path d="M2783.91,450.57l7.22-29.66H2759.5l11.7-48.14-95.44,17.58-7.43,30.57h-22.88l-7.21,29.67h22.84l-24.7,99.88c-6.06,24.94,4.84,47,34.67,47,24.8,0,76.26-2.21,76.26-2.21l9.56-39.35h-10c-6.92,0-18.26-5.53-15-20.63s20.23-84.65,20.23-84.65Z" style="fill:#6ba400"/><path d="M2280.43,414.09c-82.5,0-123,31.84-139.42,95.08-20.12,77.69,23.76,94.07,96.36,94.07,62.29,0,117.28-22.06,128.77-66.14h-92.67s2,32.16-32.67,32.16c-31.06,0-9.25-54.27-9.25-54.27h137.19C2391.76,430,2357.09,414.09,2280.43,414.09Zm3.86,70.57H2242s8.33-37.69,29.84-37.69c22.94,0,12.44,37.69,12.44,37.69Z" style="fill:#6ba400"/><path d="M1818.48,414.29c8.91-36.69.74-73.08-104.93-73.08-43.26,0-122.78,11.72-141.55,75.57-18.67,63.51,43.52,76.1,59.17,81.24,33.75,11.1,72.33,10.81,69.27,35.3-1.8,14.39-6.43,26.71-37.8,27.19-37.54.57-26.49-41.42-26.49-41.42h-98.21c-1.76,16.26-22.9,84.15,96.7,84.15,98.2,0,154.77-30.61,166-88.16,5.23-26.82,2.88-50-25.14-64.59-44-22.88-104.65-15.68-104-42.65,0-27,33-25.21,33-25.21s33.94-2.34,23.06,32.46Z" style="fill:#6ba400"/></svg>